<?xml version="1.0" encoding="UTF-8"?>
<!-- Generated by Pixelmator Pro 3.8 -->
<svg width="64" height="64" viewBox="0 0 64 64" xmlns="http://www.w3.org/2000/svg">
    <path id="path1" fill="#f7fbff" stroke="none" d="M 14 0 L 50 0 C 57.731987 0 64 6.268013 64 14 L 64 50 C 64 57.731987 57.731987 64 50 64 L 14 64 C 6.268013 64 0 57.731987 0 50 L 0 14 C -0 6.268013 6.268013 0 14 0 Z"/>
    <path id="path2" fill="#edf6fb" stroke="#6f8b9d" stroke-width="3" d="M 15 18.5 L 49 18.5 C 51.209141 18.5 53 20.290863 53 22.5 L 53 43.5 C 53 45.709141 51.209141 47.5 49 47.5 L 15 47.5 C 12.790861 47.5 11 45.709141 11 43.5 L 11 22.5 C 11 20.290863 12.790861 18.5 15 18.5 Z"/>
    <path id="path3" fill="none" stroke="#6f8b9d" stroke-width="3" stroke-linecap="round" stroke-linejoin="round" d="M 13 21 L 32 36.5 L 51 21"/>
    <path id="path4" fill="none" stroke="#6f8b9d" stroke-width="2.4" stroke-linecap="round" d="M 13.5 47 L 28.299999 33.799999 M 50.5 47 L 35.700001 33.799999"/>
</svg>
